{
	"accessors": [
		{
			"bufferView": 0,
			"componentType": 5126,
			"count": 412,
			"max": [
				1.2007, 
				3.19994, 
				0.206304
			],
			"min": [
				-1.19979, 
				5.03063e-05, 
				-0.206304
			],
			"type": "VEC3"
		}, 
		{
			"bufferView": 1,
			"componentType": 5126,
			"count": 412,
			"type": "VEC3"
		}, 
		{
			"bufferView": 2,
			"componentType": 5126,
			"count": 412,
			"type": "VEC2"
		}, 
		{
			"bufferView": 3,
			"componentType": 5123,
			"count": 1944,
			"type": "SCALAR"
		}
	],
	"asset": {
		"generator": "Khronos glTF Blender I/O v0.9.36",
		"version": "2.0"
	},
	"bufferViews": [
		{
			"buffer": 0,
			"byteLength": 4944,
			"byteOffset": 0
		}, 
		{
			"buffer": 0,
			"byteLength": 4944,
			"byteOffset": 4944
		}, 
		{
			"buffer": 0,
			"byteLength": 3296,
			"byteOffset": 9888
		}, 
		{
			"buffer": 0,
			"byteLength": 3888,
			"byteOffset": 13184
		}
	],
	"buffers": [
		{
			"bin": "gateLarge_teamRed.gltf.bin",
			"byteLength": 17072
		}
	],
	"materials": [
		{
			"name": "Red",
			"pbrMetallicRoughness": {
				"baseColorFactor": [
					1, 
					0.0250529, 
					0.118025, 
					1
				],
				"metallicFactor": 0,
				"roughnessFactor": 0.2
			}
		}
	],
	"meshes": [
		{
			"name": "Cube.1564",
			"primitives": [
				{
					"attributes": {
						"NORMAL": 1,
						"POSITION": 0,
						"TEXCOORD_0": 2
					},
					"indices": 3,
					"material": 0
				}
			]
		}
	],
	"nodes": [
		{
			"mesh": 0,
			"name": "gateLarge_teamRed"
		}
	],
	"scene": 0,
	"scenes": [
		{
			"name": "Scene",
			"nodes": [
				0
			]
		}
	]
}