{
	"accessors": [
		{
			"bufferView": 0,
			"componentType": 5126,
			"count": 142,
			"max": [
				1, 
				1.5, 
				1
			],
			"min": [
				-1, 
				0.5, 
				-1
			],
			"type": "VEC3"
		}, 
		{
			"bufferView": 1,
			"componentType": 5126,
			"count": 142,
			"type": "VEC3"
		}, 
		{
			"bufferView": 2,
			"componentType": 5126,
			"count": 142,
			"type": "VEC2"
		}, 
		{
			"bufferView": 3,
			"componentType": 5123,
			"count": 522,
			"type": "SCALAR"
		}, 
		{
			"bufferView": 4,
			"componentType": 5126,
			"count": 138,
			"max": [
				1, 
				1, 
				1
			],
			"min": [
				-1, 
				0, 
				-1
			],
			"type": "VEC3"
		}, 
		{
			"bufferView": 5,
			"componentType": 5126,
			"count": 138,
			"type": "VEC3"
		}, 
		{
			"bufferView": 6,
			"componentType": 5126,
			"count": 138,
			"type": "VEC2"
		}, 
		{
			"bufferView": 7,
			"componentType": 5123,
			"count": 522,
			"type": "SCALAR"
		}
	],
	"asset": {
		"generator": "Khronos glTF Blender I/O v0.9.36",
		"version": "2.0"
	},
	"bufferViews": [
		{
			"buffer": 0,
			"byteLength": 1704,
			"byteOffset": 0
		}, 
		{
			"buffer": 0,
			"byteLength": 1704,
			"byteOffset": 1704
		}, 
		{
			"buffer": 0,
			"byteLength": 1136,
			"byteOffset": 3408
		}, 
		{
			"buffer": 0,
			"byteLength": 1044,
			"byteOffset": 4544
		}, 
		{
			"buffer": 0,
			"byteLength": 1656,
			"byteOffset": 5588
		}, 
		{
			"buffer": 0,
			"byteLength": 1656,
			"byteOffset": 7244
		}, 
		{
			"buffer": 0,
			"byteLength": 1104,
			"byteOffset": 8900
		}, 
		{
			"buffer": 0,
			"byteLength": 1044,
			"byteOffset": 10004
		}
	],
	"buffers": [
		{
			"bin": "tileSlopeLowMedium_teamBlue.gltf.bin",
			"byteLength": 11048
		}
	],
	"materials": [
		{
			"name": "Blue",
			"pbrMetallicRoughness": {
				"baseColorFactor": [
					0.126867, 
					0.459068, 
					1, 
					1
				],
				"metallicFactor": 0,
				"roughnessFactor": 0.2
			}
		}, 
		{
			"name": "Metal",
			"pbrMetallicRoughness": {
				"baseColorFactor": [
					0.401264, 
					0.478492, 
					0.517334, 
					1
				],
				"metallicFactor": 0.2,
				"roughnessFactor": 0.3
			}
		}
	],
	"meshes": [
		{
			"name": "Cube.1627",
			"primitives": [
				{
					"attributes": {
						"NORMAL": 1,
						"POSITION": 0,
						"TEXCOORD_0": 2
					},
					"indices": 3,
					"material": 0
				}, 
				{
					"attributes": {
						"NORMAL": 5,
						"POSITION": 4,
						"TEXCOORD_0": 6
					},
					"indices": 7,
					"material": 1
				}
			]
		}
	],
	"nodes": [
		{
			"mesh": 0,
			"name": "tileSlopeLowMedium_teamBlue"
		}
	],
	"scene": 0,
	"scenes": [
		{
			"name": "Scene",
			"nodes": [
				0
			]
		}
	]
}