{
	"accessors": [
		{
			"bufferView": 0,
			"componentType": 5126,
			"count": 404,
			"max": [
				0.350674, 
				0.304923, 
				0.350674
			],
			"min": [
				-0.350674, 
				-0.00275218, 
				-0.350674
			],
			"type": "VEC3"
		}, 
		{
			"bufferView": 1,
			"componentType": 5126,
			"count": 404,
			"type": "VEC3"
		}, 
		{
			"bufferView": 2,
			"componentType": 5126,
			"count": 404,
			"type": "VEC2"
		}, 
		{
			"bufferView": 3,
			"componentType": 5123,
			"count": 1074,
			"type": "SCALAR"
		}, 
		{
			"bufferView": 4,
			"componentType": 5126,
			"count": 458,
			"max": [
				0.501959, 
				1.99947, 
				0.501959
			],
			"min": [
				-0.501959, 
				0.304923, 
				-0.501959
			],
			"type": "VEC3"
		}, 
		{
			"bufferView": 5,
			"componentType": 5126,
			"count": 458,
			"type": "VEC3"
		}, 
		{
			"bufferView": 6,
			"componentType": 5126,
			"count": 458,
			"type": "VEC2"
		}, 
		{
			"bufferView": 7,
			"componentType": 5123,
			"count": 1074,
			"type": "SCALAR"
		}, 
		{
			"bufferView": 8,
			"componentType": 5126,
			"count": 1134,
			"max": [
				1, 
				1.80335, 
				1
			],
			"min": [
				-1, 
				0.58682, 
				-1
			],
			"type": "VEC3"
		}, 
		{
			"bufferView": 9,
			"componentType": 5126,
			"count": 1134,
			"type": "VEC3"
		}, 
		{
			"bufferView": 10,
			"componentType": 5126,
			"count": 1134,
			"type": "VEC2"
		}, 
		{
			"bufferView": 11,
			"componentType": 5123,
			"count": 2484,
			"type": "SCALAR"
		}
	],
	"asset": {
		"generator": "Khronos glTF Blender I/O v0.9.36",
		"version": "2.0"
	},
	"bufferViews": [
		{
			"buffer": 0,
			"byteLength": 4848,
			"byteOffset": 0
		}, 
		{
			"buffer": 0,
			"byteLength": 4848,
			"byteOffset": 4848
		}, 
		{
			"buffer": 0,
			"byteLength": 3232,
			"byteOffset": 9696
		}, 
		{
			"buffer": 0,
			"byteLength": 2148,
			"byteOffset": 12928
		}, 
		{
			"buffer": 0,
			"byteLength": 5496,
			"byteOffset": 15076
		}, 
		{
			"buffer": 0,
			"byteLength": 5496,
			"byteOffset": 20572
		}, 
		{
			"buffer": 0,
			"byteLength": 3664,
			"byteOffset": 26068
		}, 
		{
			"buffer": 0,
			"byteLength": 2148,
			"byteOffset": 29732
		}, 
		{
			"buffer": 0,
			"byteLength": 13608,
			"byteOffset": 31880
		}, 
		{
			"buffer": 0,
			"byteLength": 13608,
			"byteOffset": 45488
		}, 
		{
			"buffer": 0,
			"byteLength": 9072,
			"byteOffset": 59096
		}, 
		{
			"buffer": 0,
			"byteLength": 4968,
			"byteOffset": 68168
		}
	],
	"buffers": [
		{
			"bin": "spikeRoller.gltf.bin",
			"byteLength": 73136
		}
	],
	"materials": [
		{
			"name": "BrownDark",
			"pbrMetallicRoughness": {
				"baseColorFactor": [
					0.326946, 
					0.101526, 
					0.0592709, 
					1
				],
				"metallicFactor": 0,
				"roughnessFactor": 0.4
			}
		}, 
		{
			"name": "Black",
			"pbrMetallicRoughness": {
				"baseColorFactor": [
					0.019794, 
					0.0320759, 
					0.0374082, 
					1
				],
				"metallicFactor": 0,
				"roughnessFactor": 0.2
			}
		}, 
		{
			"name": "Metal",
			"pbrMetallicRoughness": {
				"baseColorFactor": [
					0.401264, 
					0.478492, 
					0.517334, 
					1
				],
				"metallicFactor": 0.2,
				"roughnessFactor": 0.3
			}
		}
	],
	"meshes": [
		{
			"name": "Cylinder.048",
			"primitives": [
				{
					"attributes": {
						"NORMAL": 1,
						"POSITION": 0,
						"TEXCOORD_0": 2
					},
					"indices": 3,
					"material": 0
				}, 
				{
					"attributes": {
						"NORMAL": 5,
						"POSITION": 4,
						"TEXCOORD_0": 6
					},
					"indices": 7,
					"material": 1
				}, 
				{
					"attributes": {
						"NORMAL": 9,
						"POSITION": 8,
						"TEXCOORD_0": 10
					},
					"indices": 11,
					"material": 2
				}
			]
		}
	],
	"nodes": [
		{
			"mesh": 0,
			"name": "spikeRoller"
		}
	],
	"scene": 0,
	"scenes": [
		{
			"name": "Scene",
			"nodes": [
				0
			]
		}
	]
}