{
	"accessors": [
		{
			"bufferView": 0,
			"componentType": 5126,
			"count": 412,
			"max": [
				1.2007, 
				1.99994, 
				0.206304
			],
			"min": [
				-1.19979, 
				5.03063e-05, 
				-0.206304
			],
			"type": "VEC3"
		}, 
		{
			"bufferView": 1,
			"componentType": 5126,
			"count": 412,
			"type": "VEC3"
		}, 
		{
			"bufferView": 2,
			"componentType": 5126,
			"count": 412,
			"type": "VEC2"
		}, 
		{
			"bufferView": 3,
			"componentType": 5123,
			"count": 1944,
			"type": "SCALAR"
		}
	],
	"asset": {
		"generator": "Khronos glTF Blender I/O v4.4.55",
		"version": "2.0"
	},
	"bufferViews": [
		{
			"buffer": 0,
			"byteLength": 4944,
			"byteOffset": 0,
			"target": 34962
		}, 
		{
			"buffer": 0,
			"byteLength": 4944,
			"byteOffset": 4944,
			"target": 34962
		}, 
		{
			"buffer": 0,
			"byteLength": 3296,
			"byteOffset": 9888,
			"target": 34962
		}, 
		{
			"buffer": 0,
			"byteLength": 3888,
			"byteOffset": 13184,
			"target": 34963
		}
	],
	"buffers": [
		{
			"bin": "gateSmall_teamGreen.gltf.bin",
			"byteLength": 17072
		}
	],
	"materials": [
		{
			"name": "Green",
			"pbrMetallicRoughness": {
				"baseColorFactor": [
					0.0653415, 
					0.500543, 
					0.265645, 
					1
				],
				"metallicFactor": 0,
				"roughnessFactor": 0.4
			}
		}
	],
	"meshes": [
		{
			"name": "Cube.1569",
			"primitives": [
				{
					"attributes": {
						"NORMAL": 1,
						"POSITION": 0,
						"TEXCOORD_0": 2
					},
					"indices": 3,
					"material": 0
				}
			]
		}
	],
	"nodes": [
		{
			"mesh": 0,
			"name": "gateSmall_teamBlue"
		}
	],
	"scene": 0,
	"scenes": [
		{
			"name": "Scene",
			"nodes": [
				0
			]
		}
	]
}